<?xml version="1.0" standalone="no"?>
<!-- Generator: Adobe Fireworks 10, Export SVG Extension by Aaron Beall (http://fireworks.abeall.com) . Version: 0.6.1  -->
<!DOCTYPE svg PUBLIC "-//W3C//DTD SVG 1.1//EN" "http://www.w3.org/Graphics/SVG/1.1/DTD/svg11.dtd">
<svg id="AuroraLogo-Page%201" viewBox="0 0 1500 471" style="background-color:#ffffff00" version="1.1"
	xmlns="http://www.w3.org/2000/svg" xmlns:xlink="http://www.w3.org/1999/xlink" xml:space="preserve"
	x="0px" y="0px" width="1500px" height="471px"
>
	<g id="Layer%201">
		<g>
			<path d="M 553.1063 408.8975 L 540.8622 408.8975 L 540.8622 427.4768 C 538.023 428.201 535.4993 428.544 533.291 428.544 C 518.3064 428.544 510.8338 420.8836 510.8338 405.5437 C 510.8338 391.4043 518.7599 384.3347 534.6318 384.3347 C 541.2566 384.3347 547.4081 385.5352 553.1063 387.9171 L 553.1063 377.1888 C 547.4081 375.1117 540.9411 374.0636 533.7051 374.0636 C 509.9662 374.0636 498.1165 384.5633 498.1165 405.5437 C 498.1165 427.7246 509.7691 438.815 533.1136 438.815 C 541.1185 438.815 547.7828 437.6907 553.1063 435.4231 L 553.1063 408.8975 L 553.1063 408.8975 Z" fill="#d0d0d2"/>
			<path d="M 595.8717 386.6976 L 606.2624 410.6888 L 592.9537 410.6888 L 588.754 420.9598 L 610.6986 420.9598 L 618.2304 438.3767 L 631.4011 438.3767 L 602.7528 374.5019 L 589.5821 374.5019 L 561.545 438.3767 L 574.1045 438.3767 L 595.8717 386.6976 L 595.8717 386.6976 Z" fill="#d0d0d2"/>
			<path d="M 653.0895 438.3767 L 653.0895 393.9006 L 671.3865 438.3767 L 681.8364 438.3767 L 699.7588 393.9006 L 699.7588 438.3767 L 711.0761 438.3767 L 711.0761 374.5019 L 698.8321 374.5019 L 676.8875 422.9606 L 654.4696 374.5019 L 641.7721 374.5019 L 641.7721 438.3767 L 653.0895 438.3767 L 653.0895 438.3767 Z" fill="#d0d0d2"/>
			<path d="M 727.579 374.5019 L 727.579 438.3767 L 773.4597 438.3767 L 773.4597 428.1057 L 739.5864 428.1057 L 739.5864 411.3557 L 771.2317 411.3557 L 771.2317 400.7798 L 739.7244 400.7798 L 739.7244 384.6967 L 772.809 384.6967 L 772.809 374.5019 L 727.579 374.5019 L 727.579 374.5019 Z" fill="#d0d0d2"/>
			<path d="M 823.1062 438.3767 L 823.1062 411.127 L 855.6781 411.127 L 855.6781 438.3767 L 867.9221 438.3767 L 867.9221 374.5019 L 855.6781 374.5019 L 855.6781 400.856 L 823.1062 400.856 L 823.1062 374.5019 L 810.8621 374.5019 L 810.8621 438.3767 L 823.1062 438.3767 L 823.1062 438.3767 Z" fill="#d0d0d2"/>
			<path d="M 912.4621 438.815 C 931.3901 438.815 940.8738 430.3162 940.8738 413.2803 L 940.8738 374.5019 L 928.6298 374.5019 L 928.6298 413.2803 C 928.6298 423.4561 923.2274 428.544 912.4621 428.544 C 901.6771 428.544 896.2944 423.4561 896.2944 413.2803 L 896.2944 374.5019 L 884.0504 374.5019 L 884.0504 413.2803 C 884.0504 430.3162 893.5143 438.815 912.4621 438.815 L 912.4621 438.815 Z" fill="#d0d0d2"/>
			<path d="M 987.2277 438.3767 C 1000.9899 438.3767 1007.871 432.0883 1007.871 419.4925 C 1007.871 411.3938 1003.4939 406.5536 994.7594 404.972 C 1002.9418 401.8469 1007.0429 396.6637 1007.0429 389.3844 C 1007.0429 379.4755 1000.7533 374.5019 988.1938 374.5019 L 957.2386 374.5019 L 957.2386 438.3767 L 987.2277 438.3767 L 987.2277 438.3767 ZM 969.4827 428.1057 L 969.4827 384.7729 L 987.4051 384.7729 C 991.9597 384.7729 994.2468 386.5642 994.2468 390.1467 C 994.2468 396.74 989.1599 400.8369 978.9861 402.4757 L 978.9861 410.098 L 982.6928 410.098 C 990.7766 410.098 994.8383 413.4328 994.8383 420.0642 C 994.8383 425.4379 992.1174 428.1057 986.715 428.1057 L 969.4827 428.1057 L 969.4827 428.1057 Z" fill="#d0d0d2"/>
		</g>
		<path d="M 765.781 327 L 715.0834 327 L 659 176.5142 C 658.8308 176.0603 659 147.8659 659 145.4739 L 661.6706 141 L 709 141 L 709 54 L 657 54 L 657 327 L 606 327 L 606 9 L 748.6786 9 C 753.252 10.7585 758 20.0089 758 24.7177 L 758 165.5311 C 745.1749 185.2697 738.7177 180 712.9332 180 L 713.6265 181.7558 L 765.781 327 Z" fill="#dbdbea"/>
		<path d="M 550 282 L 496 282 L 496 9 L 448 9 L 448 301.8369 C 448 313.7057 448.0909 325.2109 460.7121 331 L 586.8483 331 C 594.3924 326.4004 602 314.4788 602 305.6454 L 602 9 L 550 9 L 550 282 Z" fill="#dbdbea"/>
		<path d="M 382.7503 221 L 367.7278 112.9683 L 354.0922 221 L 382.7503 221 ZM 393.3813 267 L 401.1622 327 L 449.6957 327 L 393.5355 7 L 330.1335 7 L 264.1123 447.4209 C 264.1123 447.5519 320.8117 448.1166 320.8117 448.1166 C 320.8117 447.9856 349.1619 267 349.1619 267 L 393.3813 267 Z" fill="#dbdbea"/>
		<path d="M 813 53 L 865 53 L 865 278 L 813.2306 278 L 813 277.5084 L 813 53 ZM 896.2828 328.4216 L 777.3367 327.8116 C 771.1395 323.3323 762 316.091 762 307.5264 L 762 28.0731 C 762 17.5344 770.9854 7 782.2673 7 L 898.1316 7 C 905.2377 7 915 22.5074 915 28.7976 L 915 306.4207 C 915 315.1895 903.042 324.8406 896.2828 328.4216 Z" fill="#dbdbea"/>
		<g>
			<g>
				<path d="M 11.0294 222.6688 C 11.0294 221.1948 12.2249 220 13.6996 220 L 248.6747 220 C 250.1496 220 251.3451 221.1948 251.3451 222.6688 L 251.3451 222.3312 C 251.3451 223.8052 250.1496 225 248.6747 225 L 13.6996 225 C 12.2249 225 11.0294 223.8052 11.0294 222.3312 L 11.0294 222.6688 Z" fill="#f5f5f5"/>
			</g>
			<g>
				<path d="M 23.0451 174.6688 C 23.0451 173.1948 24.2407 172 25.7154 172 L 260.6906 172 C 262.1655 172 263.3609 173.1948 263.3609 174.6688 L 263.3609 174.3312 C 263.3609 175.8052 262.1655 177 260.6906 177 L 25.7154 177 C 24.2407 177 23.0451 175.8052 23.0451 174.3312 L 23.0451 174.6688 Z" fill="#f5f5f5"/>
			</g>
		</g>
		<g>
			<g>
				<path d="M 1488.9707 222.6688 C 1488.9707 221.1948 1487.7753 220 1486.3004 220 L 1251.3253 220 C 1249.8505 220 1248.6549 221.1948 1248.6549 222.6688 L 1248.6549 222.3312 C 1248.6549 223.8052 1249.8505 225 1251.3253 225 L 1486.3004 225 C 1487.7753 225 1488.9707 223.8052 1488.9707 222.3312 L 1488.9707 222.6688 Z" fill="#f5f5f5"/>
			</g>
			<g>
				<path d="M 1476.955 174.6688 C 1476.955 173.1948 1475.7594 172 1474.2847 172 L 1239.3094 172 C 1237.8345 172 1236.6392 173.1948 1236.6392 174.6688 L 1236.6392 174.3312 C 1236.6392 175.8052 1237.8345 177 1239.3094 177 L 1474.2847 177 C 1475.7594 177 1476.955 175.8052 1476.955 174.3312 L 1476.955 174.6688 Z" fill="#f5f5f5"/>
			</g>
		</g>
		<path d="M 1236.8698 449.8326 L 1236.8698 449.8326 ZM 1191.0533 426.9176 L 1191.0533 426.9176 ZM 1224.8063 449.5372 C 1225.6434 449.3403 1223.9692 449.7341 1224.8063 449.5372 ZM 1054.1816 9 L 918 9 L 918 331 L 971 331 L 971 58 L 1023 58 L 1023 147 L 972 147 L 972 184.7935 L 1027.0564 331 L 1099.662 331 C 1099.662 330.0172 1108.0847 270 1108.0847 270 L 1149.5822 270 L 1176.4941 450.7861 L 1237.3027 449.6621 L 1171.7692 10 L 1101.973 10 L 1058.1388 268.5201 L 1026.9385 182.9827 L 1026.6304 181 L 1055.751 181 L 1060.2189 178.7122 L 1062.6837 176.7412 L 1065.2261 174.1484 L 1066.844 172.6232 L 1069.0398 169.6872 L 1071.9287 165.5311 L 1071.312 24.8321 L 1070.6188 20.4853 L 1068.6158 15.8335 L 1065.7655 11.9442 L 1062.1447 10.3727 L 1054.1816 9 ZM 1142.1866 224 L 1126.7793 115.0029 L 1111.3717 224 L 1142.1866 224 Z" fill="#dbdbea"/>
	</g>
</svg>