<?xml version="1.0" standalone="no"?>
<!-- Generator: Adobe Fireworks 10, Export SVG Extension by Aaron Beall (http://fireworks.abeall.com) . Version: 0.6.1  -->
<!DOCTYPE svg PUBLIC "-//W3C//DTD SVG 1.1//EN" "http://www.w3.org/Graphics/SVG/1.1/DTD/svg11.dtd">
<svg id="sammyLogo-Page%201" viewBox="0 0 510 510" style="background-color:#ffffff00" version="1.1"
	xmlns="http://www.w3.org/2000/svg" xmlns:xlink="http://www.w3.org/1999/xlink" xml:space="preserve"
	x="0px" y="0px" width="510px" height="510px"
>
	<g id="Layer%201">
		<rect x="0" y="0" width="510" height="510" fill="#0e2234"/>
		<g>
			<path d="M 205.2309 438 L 255.0001 388.161 L 304.7695 438 L 489 253.5001 L 304.7695 69 L 255.0001 118.8432 L 205.2309 69 L 21 253.5001 L 205.2309 438 Z" fill="#f5f5f5"/>
		</g>
		<g>
			<path d="M 206.8181 292.8281 C 205.0369 295.4063 202.6463 297.4219 199.6931 298.9219 C 196.6931 300.4219 193.365 301.4531 189.6619 302.0625 C 185.9119 302.7188 182.1619 303 178.3181 303 C 171.6619 303 165.4531 302.5313 159.2188 301.5938 C 152.9375 300.6563 146.5625 299.1094 140 297 L 140 316.3594 C 144.6406 318.7969 150.4531 320.6719 157.4844 321.9844 C 164.4688 323.2969 171.3806 324 178.6463 324 C 186.8963 324 194.5369 323.1563 201.4744 321.5156 C 208.4119 319.875 214.1775 317.3438 218.865 313.9219 C 223.5056 310.5 227.115 306.1875 229.6463 300.9375 C 232.1775 295.6875 233.49 289.5 233.49 282.3281 C 233.49 275.3906 232.3181 269.6719 230.0213 265.1719 C 227.6775 260.7188 224.5369 257.1094 220.5994 254.2969 C 216.6619 251.5313 212.115 249.375 207.0056 247.7813 C 201.8494 246.2344 196.5056 244.875 190.9275 243.6563 C 187.365 242.9531 183.99 242.1563 180.8025 241.2656 C 177.615 240.4219 174.8494 239.25 172.4119 237.8438 C 169.9744 236.4375 168.0056 234.6094 166.5994 232.4063 C 165.1931 230.25 164.49 227.4375 164.49 224.0625 C 164.49 218.3906 166.6463 214.125 171.0056 211.2656 C 175.3181 208.4531 181.5056 207 189.5681 207 C 195.1463 207 200.75 207.5156 207.125 208.4531 C 213.4531 209.3906 220.0625 210.9375 227 213 L 227 193.125 C 221.7969 191.0625 215.6094 189.3281 208.4375 188.0156 C 201.2656 186.7031 194.49 186 187.365 186 C 180.24 186 173.9119 186.8438 168.2869 188.5313 C 162.6619 190.2188 157.7869 192.7969 153.7088 196.1719 C 149.6306 199.5938 146.3963 203.9063 144.0525 209.1094 C 141.6619 214.3125 140.49 220.4063 140.49 227.4375 C 140.49 233.8125 141.5213 239.1563 143.6775 243.375 C 145.7869 247.5938 148.6463 251.1094 152.2088 253.8281 C 155.7713 256.5938 159.9431 258.75 164.6306 260.2969 C 169.3181 261.8906 174.2869 263.2031 179.4431 264.3281 C 183.3806 265.125 187.0838 265.9219 190.6463 266.7656 C 194.2088 267.6094 197.3963 268.6875 200.2556 270 C 203.0681 271.3125 205.3181 273.0469 207.0056 275.1094 C 208.6463 277.2188 209.49 279.9375 209.49 283.3125 C 209.49 287.1094 208.5994 290.2969 206.8181 292.8281 L 206.8181 292.8281 Z" stroke="#181f28" stroke-width="1" fill="#0060bf"/>
			<path d="M 346 301.4063 C 343.6563 301.875 340.4475 302.2969 337.3538 302.5781 C 334.26 302.8594 331.26 303 328.3538 303 C 312.7913 303 300.7444 299.1094 292.3069 291.3281 C 283.8225 283.5469 279.5569 271.875 279.51 256.2656 C 279.51 248.2969 280.8225 241.2188 283.4944 235.125 C 286.1194 229.0313 289.7756 223.875 294.4163 219.7031 C 299.01 215.5313 304.4944 212.3906 310.7756 210.2344 C 317.0569 208.0781 323.8538 207 331.1194 207 C 336.4631 207 342 207.5156 347.2969 208.5469 C 352.5469 209.5781 357.7969 211.0313 363 213 L 363 191.25 C 359.1094 189.7969 354.1406 188.5781 348.1406 187.5469 C 342.0938 186.5156 335.5256 186 328.8225 186 C 321.2288 186 314.1506 186.8438 307.5413 188.4375 C 300.9319 190.0781 294.8381 192.4219 289.3069 195.4688 C 283.7756 198.5156 278.9006 202.1719 274.7756 206.4844 C 270.6506 210.7969 267.135 215.625 264.2756 220.9688 C 261.3694 226.3125 259.2131 232.0781 257.7131 238.3594 C 256.2131 244.6406 255.51 251.2031 255.51 258.0938 C 255.51 267.8438 256.9631 276.75 259.9631 284.8125 C 262.9163 292.875 267.3694 299.8125 273.3694 305.625 C 279.3694 311.4375 286.8694 315.9844 295.8694 319.1719 C 304.8694 322.3594 315.3694 324 327.4163 324 C 331.4006 324 335.4319 323.7656 339.51 323.3906 C 343.5881 322.9688 347.5725 322.4531 351.4163 321.8438 C 355.26 321.1406 359.2188 320.4844 362.3125 319.6406 C 365.4063 318.8438 367.9844 318.0469 370 317.2969 L 370 249.5 L 316 249.5 L 316 270.5 L 346 270.5 L 346 301.9063 L 346 301.4063 Z" stroke="#181f28" stroke-width="1" fill="#0060bf"/>
		</g>
		<path d="M 303 68.488 L 254.9999 20 L 207 68.488 L 254.9999 117 L 303 68.488 Z" stroke="#111111" stroke-width="1" fill="#0060bf"/>
		<path d="M 303 438.488 L 254.9999 390 L 207 438.488 L 254.9999 487 L 303 438.488 Z" stroke="#111111" stroke-width="1" fill="#0060bf"/>
	</g>
</svg>